# xmcd CD database file
#
# Track frame offsets:
#	150
#	21480
#	31397
#	57725
#
# Disc length: 1273 seconds
#
# Revision: 1
# Processed by: cddbd v1.5.2PL0 Copyright (c) Steve Scherf et al.
# Submitted via: CDex 1.70beta2
#
DISCID=3504f704
DTITLE=STRAIGHTENER - TENDER
DYEAR=2004
DGENRE=J-POP
TTITLE0=TENDER
TTITLE1=SING
TTITLE2=SKYLABHURRICANE (HURRICANE MIXER EDIT)
TTITLE3=CD EXTRA DATA
EXTD=YEAR: 2004
EXTT0=
EXTT1=
EXTT2=
EXTT3=
PLAYORDER=
